<?xml version="1.0" encoding="UTF-8" standalone="no"?>
<!-- Created with Inkscape (http://www.inkscape.org/) -->

<svg
   version="1.1"
   id="svg118632"
   xml:space="preserve"
   width="800"
   height="800"
   viewBox="0 0 800 800"
   sodipodi:docname="maracas-publicdomainvectors.org.svg"
   inkscape:version="1.1.2 (b8e25be833, 2022-02-05)"
   xmlns:inkscape="http://www.inkscape.org/namespaces/inkscape"
   xmlns:sodipodi="http://sodipodi.sourceforge.net/DTD/sodipodi-0.dtd"
   xmlns="http://www.w3.org/2000/svg"
   xmlns:svg="http://www.w3.org/2000/svg"><defs
     id="defs118636"><clipPath
       clipPathUnits="userSpaceOnUse"
       id="clipPath118646"><path
         d="M 0,600 H 600 V 0 H 0 Z"
         id="path118644" /></clipPath></defs><sodipodi:namedview
     id="namedview118634"
     pagecolor="#ffffff"
     bordercolor="#666666"
     borderopacity="1.0"
     inkscape:pageshadow="2"
     inkscape:pageopacity="0.0"
     inkscape:pagecheckerboard="0"
     showgrid="false"
     inkscape:zoom="1.03875"
     inkscape:cx="400"
     inkscape:cy="400"
     inkscape:window-width="1920"
     inkscape:window-height="1018"
     inkscape:window-x="-8"
     inkscape:window-y="-8"
     inkscape:window-maximized="1"
     inkscape:current-layer="g118638" /><g
     id="g118638"
     inkscape:groupmode="layer"
     inkscape:label="maracas-publicdomainvectors.org"
     transform="matrix(1.3333333,0,0,-1.3333333,0,800)"><g
       id="g118640"><g
         id="g118642"
         clip-path="url(#clipPath118646)"><path
           d="m 413.658,484.587 c 48.994,-11.756 75.546,-76.156 61.717,-133.786 -9.478,-39.497 -35.462,-65.563 -66.646,-74.27 -25.053,-6.996 -42.423,-27.349 -45.391,-53.191 -0.929,-8.094 -1.571,-16.348 -1.976,-25.088 -1.38,-29.924 -7.08,-69.102 -13.117,-94.262 -4.241,-17.676 -18.384,-28.258 -31.917,-25.01 -13.533,3.247 -21.611,17.936 -17.092,36.77 5.996,24.988 18.717,62.549 31.088,89.902 3.614,7.994 6.793,15.659 9.642,23.315 9.071,24.371 2.825,50.381 -16.322,67.976 -23.842,21.913 -35.171,56.933 -25.693,96.432 13.829,57.63 66.713,102.969 115.707,91.212"
           style="fill:#996633;fill-opacity:1;fill-rule:evenodd;stroke:none"
           id="path118648" /><path
           d="m 442.986,295.115 c -9.479,-8.271 -20.336,-14.31 -31.968,-17.908 -15.039,-3.902 -31.224,-4.281 -47.386,-0.402 -15.019,3.603 -28.387,10.492 -39.535,19.715 -0.152,0.14 -0.301,0.283 -0.453,0.423 -9.821,9.026 -17.514,20.276 -22.51,33.146 21.525,-9.348 45.933,-17.533 72.187,-23.833 24.223,-5.812 47.77,-9.477 69.665,-11.141"
           style="fill:#990099;fill-opacity:1;fill-rule:evenodd;stroke:none"
           id="path118650" /><path
           d="m 308.271,327.076 c 19.728,-8.095 41.656,-15.206 65.05,-20.82 4.95,-1.187 9.872,-2.286 14.758,-3.296 -11.754,-1.928 -24.37,-1.494 -37.516,1.662 -17.1,4.102 -31.3,11.933 -42.292,22.454"
           style="fill:#b00cb0;fill-opacity:1;fill-rule:evenodd;stroke:none"
           id="path118652" /><path
           d="m 413.658,484.587 c 27.499,-6.598 47.927,-29.782 58.113,-59.044 -19.676,8.062 -41.535,15.144 -64.849,20.739 -25.299,6.071 -49.86,9.799 -72.574,11.349 22.46,21.91 51.509,33.627 79.31,26.956"
           style="fill:#99cc33;fill-opacity:1;fill-rule:evenodd;stroke:none"
           id="path118654" /><path
           d="m 413.658,484.587 c 19.11,-4.585 34.803,-17.181 46.019,-34.259 2.188,-7.102 3.779,-14.455 4.787,-21.875 -17.732,6.86 -37.075,12.918 -57.542,17.829 -25.299,6.071 -49.86,9.799 -72.574,11.349 22.46,21.91 51.509,33.627 79.31,26.956"
           style="fill:#b0e34b;fill-opacity:1;fill-rule:evenodd;stroke:none"
           id="path118656" /><path
           d="m 413.208,444.728 c -2.083,0.53 -4.179,1.048 -6.286,1.554 -20.277,4.865 -40.08,8.226 -58.837,10.167 9.912,11.502 23.879,19.02 38.759,15.449 13.49,-3.237 22.164,-14.2 26.364,-27.17"
           style="fill:#cff77e;fill-opacity:1;fill-rule:evenodd;stroke:none"
           id="path118658" /><path
           d="m 469.44,332.501 c -6.349,-15.239 -15.478,-27.809 -26.454,-37.386 -21.895,1.664 -45.442,5.329 -69.665,11.141 -26.254,6.3 -50.662,14.485 -72.187,23.833 -5.19,13.372 -7.463,28.494 -6.168,44.69 l 10e-4,-10e-4 c 25.832,-8.584 56.134,-17.22 88.784,-25.055 30.728,-7.374 59.923,-13.17 85.689,-17.223 z"
           style="fill:#336699;fill-opacity:1;fill-rule:evenodd;stroke:none"
           id="path118660" /><path
           d="m 388.079,302.96 c -4.886,1.01 -9.808,2.109 -14.758,3.296 -23.394,5.614 -45.322,12.725 -65.05,20.82 -3.682,3.524 -7.003,7.349 -9.952,11.438 -3.156,11.183 -4.382,23.384 -3.353,36.265 l 10e-4,-10e-4 c 25.832,-8.584 56.134,-17.22 88.784,-25.055 20.703,-4.968 40.709,-9.22 59.44,-12.705 -13.761,-18.287 -32.89,-30.41 -55.112,-34.058"
           style="fill:#4f84b8;fill-opacity:1;fill-rule:evenodd;stroke:none"
           id="path118662" /><path
           d="m 471.771,425.543 c 4.949,-14.213 7.481,-29.861 7.233,-45.739 L 479,379.816 c -24.415,7.901 -52.465,15.79 -82.509,22.999 -31.964,7.67 -62.265,13.632 -88.778,17.701 l -0.006,-0.002 c 6.847,14.079 16.004,26.741 26.641,37.117 22.714,-1.55 47.275,-5.278 72.574,-11.349 23.314,-5.595 45.173,-12.677 64.849,-20.739"
           style="fill:#ffcc00;fill-opacity:1;fill-rule:evenodd;stroke:none"
           id="path118664" /><path
           d="m 463.58,384.656 c -20.55,6.26 -43.188,12.424 -67.089,18.159 -31.964,7.67 -62.265,13.632 -88.778,17.701 l -0.006,-0.002 c 6.847,14.079 16.004,26.741 26.641,37.117 22.714,-1.55 47.275,-5.278 72.574,-11.349 20.467,-4.911 39.81,-10.969 57.542,-17.829 2.014,-14.836 1.689,-29.931 -0.884,-43.797"
           style="fill:#ffdb4a;fill-opacity:1;fill-rule:evenodd;stroke:none"
           id="path118666" /><path
           d="m 410.14,399.459 c -4.499,1.133 -9.05,2.253 -13.649,3.356 -22.109,5.306 -43.425,9.793 -63.24,13.404 -0.198,4.692 0.282,9.599 1.482,14.6 2.142,8.927 6.885,18.126 13.352,25.63 18.757,-1.941 38.56,-5.302 58.837,-10.167 2.107,-0.506 4.203,-1.024 6.286,-1.554 3.477,-10.732 3.889,-22.84 1.431,-33.083 -1.057,-4.402 -2.577,-8.482 -4.499,-12.186"
           style="fill:#ffe98f;fill-opacity:1;fill-rule:evenodd;stroke:none"
           id="path118668" /><path
           d="m 479,379.816 c -0.15,-9.677 -1.327,-19.44 -3.625,-29.015 -1.552,-6.467 -3.548,-12.572 -5.935,-18.301 -25.766,4.053 -54.961,9.849 -85.689,17.223 -32.65,7.835 -62.952,16.471 -88.784,25.055 0.484,6.061 1.466,12.271 2.984,18.597 2.266,9.444 5.587,18.555 9.762,27.141 26.513,-4.069 56.814,-10.031 88.778,-17.701 30.044,-7.209 58.094,-15.098 82.509,-22.999"
           style="fill:#ff6633;fill-opacity:1;fill-rule:evenodd;stroke:none"
           id="path118670" /><path
           d="m 443.191,337.018 c -18.731,3.485 -38.737,7.737 -59.44,12.705 -32.65,7.835 -62.952,16.471 -88.784,25.055 0.484,6.061 1.466,12.271 2.984,18.597 2.266,9.444 5.587,18.555 9.762,27.141 26.513,-4.069 56.814,-10.031 88.778,-17.701 23.901,-5.735 46.539,-11.899 67.089,-18.159 -0.378,-2.04 -0.8,-4.056 -1.275,-6.038 -3.827,-15.952 -10.395,-30.012 -19.114,-41.6"
           style="fill:#ff9875;fill-opacity:1;fill-rule:evenodd;stroke:none"
           id="path118672" /><path
           d="m 333.251,416.219 c 19.815,-3.611 41.131,-8.098 63.24,-13.404 4.599,-1.103 9.15,-2.223 13.649,-3.356 -8.781,-16.92 -25.965,-25.905 -45.827,-21.139 -19.191,4.605 -30.289,19.621 -31.062,37.899"
           style="fill:#ffc5b2;fill-opacity:1;fill-rule:evenodd;stroke:none"
           id="path118674" /><path
           d="m 411.018,277.207 c -0.76,-0.234 -1.523,-0.461 -2.289,-0.676 -25.053,-6.996 -42.423,-27.349 -45.391,-53.191 -0.929,-8.094 -1.571,-16.348 -1.976,-25.088 -1.38,-29.924 -7.08,-69.102 -13.117,-94.262 -4.241,-17.676 -18.384,-28.258 -31.917,-25.01 -13.533,3.247 -21.611,17.936 -17.092,36.77 5.996,24.988 18.717,62.549 31.088,89.902 3.614,7.994 6.793,15.659 9.642,23.315 8.999,24.178 2.921,49.965 -15.869,67.553 11.148,-9.223 24.516,-16.112 39.535,-19.715 16.162,-3.879 32.348,-3.5 47.386,0.402"
           style="fill:#996633;fill-opacity:1;fill-rule:evenodd;stroke:none"
           id="path118676" /><path
           d="m 411.018,277.207 c -0.76,-0.234 -1.523,-0.461 -2.289,-0.676 -12.978,-3.625 -23.893,-10.834 -31.814,-20.533 -5.781,0.389 -11.696,1.285 -17.719,2.731 -5.826,1.398 -11.327,3.214 -16.5,5.402 -2.606,12.078 -8.915,23.322 -18.599,32.389 11.148,-9.223 24.516,-16.112 39.535,-19.715 16.162,-3.879 32.348,-3.5 47.386,0.402"
           style="fill:#875625;fill-opacity:1;fill-rule:evenodd;stroke:none"
           id="path118678" /><path
           d="m 302.448,88.965 c -4.273,6.687 -5.784,16.064 -3.212,26.785 0.401,1.668 0.831,3.393 1.289,5.164 2.216,-9.914 2.931,-20.736 1.923,-31.949 m 24.92,-9.678 c 0.338,1.258 0.662,2.527 0.969,3.805 8.118,33.832 3.003,66.691 -11.467,89.332 -2.188,-5.961 -4.298,-11.986 -6.28,-17.924 9.301,-18.531 12.067,-43.232 5.984,-68.584 -0.53,-2.209 -1.118,-4.381 -1.76,-6.516 0.498,-0.156 1.001,-0.296 1.514,-0.42 3.706,-0.89 7.458,-0.74 11.04,0.307 m 30.85,82.789 c -2.538,-21.049 -6.19,-42.32 -9.973,-58.086 -1.155,-4.816 -3.047,-9.103 -5.46,-12.728 0.541,1.898 1.047,3.824 1.514,5.771 9.284,38.692 1.173,76.106 -18.476,98.264 1.496,3.574 3.002,7.041 4.501,10.355 0.932,2.061 1.835,4.1 2.711,6.123 12.094,-12.562 20.786,-29.832 25.183,-49.699 m 6.675,69.819 c -6.036,7.783 -13.02,14.402 -20.836,19.587 0.019,-6.744 -1.073,-13.595 -3.327,-20.347 8.357,-6.557 15.449,-15.129 21.058,-25.194 0.387,5.955 0.898,11.717 1.55,17.399 0.337,2.926 0.859,5.781 1.555,8.555 m 20.943,32.962 c -4.971,-4.003 -9.254,-8.74 -12.729,-14.064 -9.173,9.564 -20.104,16.703 -32.485,20.666 -3.032,8.605 -8.035,16.607 -14.884,23.469 0.123,-0.006 0.245,-0.018 0.368,-0.026 10.733,-8.412 23.4,-14.709 37.526,-18.097 4.018,-0.965 8.037,-1.666 12.04,-2.116 3.58,-2.994 6.97,-6.283 10.164,-9.832"
           style="fill:#b5824f;fill-opacity:1;fill-rule:evenodd;stroke:none"
           id="path118680" /><path
           d="m 385.836,264.857 c -3.286,-2.646 -6.271,-5.613 -8.921,-8.859 -3.542,0.238 -7.137,0.674 -10.773,1.303 -7.585,6.326 -16.136,11.154 -25.52,14.158 -3.032,8.605 -8.035,16.607 -14.884,23.469 0.123,-0.006 0.245,-0.018 0.368,-0.026 10.733,-8.412 23.4,-14.709 37.526,-18.097 4.018,-0.965 8.037,-1.666 12.04,-2.116 3.58,-2.994 6.97,-6.283 10.164,-9.832"
           style="fill:#996633;fill-opacity:1;fill-rule:evenodd;stroke:none"
           id="path118682" /><path
           d="m 339.841,211.527 c 6.873,-1.648 -11.783,-103.955 -13.433,-110.828 -1.649,-6.873 -8.557,-11.107 -15.43,-9.459 -6.874,1.651 -11.108,8.559 -9.459,15.432 1.649,6.873 31.45,106.504 38.322,104.855"
           style="fill:#bd8a57;fill-opacity:1;fill-rule:evenodd;stroke:none"
           id="path118684" /><path
           d="m 302.885,97.279 c -1.586,2.741 -2.163,6.071 -1.366,9.393 0.124,0.514 0.407,1.557 0.824,3.027 0.419,-4.043 0.603,-8.193 0.542,-12.42 m 28.621,31.067 c -2.482,-14.426 -4.591,-25.537 -5.098,-27.647 -1.091,-4.545 -4.482,-7.935 -8.641,-9.234 3.843,20.195 2.125,39.717 -3.971,55.728 2.047,6.401 4.219,13.041 6.408,19.522 5.92,-11.1 9.811,-24.186 11.302,-38.369 m 9.803,73.363 c -0.218,-6.648 -1.205,-16.102 -2.578,-26.604 -2.703,5.956 -5.952,11.426 -9.695,16.295 2.797,7.235 5.352,13.114 7.396,16.618 1.704,-2.004 3.33,-4.11 4.877,-6.309"
           style="fill:#cf9e6e;fill-opacity:1;fill-rule:evenodd;stroke:none"
           id="path118686" /><path
           d="m 442.986,295.115 c -9.479,-8.271 -20.336,-14.31 -31.968,-17.908 -15.039,-3.902 -31.224,-4.281 -47.386,-0.402 -13.672,3.279 -25.976,9.283 -36.483,17.291 7.347,-3.918 15.477,-7.01 24.356,-9.141 27.853,-6.682 53.44,-1.725 73.839,11.897 5.984,-0.719 11.871,-1.297 17.642,-1.737"
           style="fill:#800080;fill-opacity:1;fill-rule:evenodd;stroke:none"
           id="path118688" /><path
           d="m 469.44,332.501 c -6.349,-15.239 -15.478,-27.809 -26.454,-37.386 -5.771,0.44 -11.658,1.018 -17.642,1.737 13.479,9 24.689,21.787 32.792,37.502 3.835,-0.653 7.605,-1.271 11.304,-1.854 z"
           style="fill:#1f4c78;fill-opacity:1;fill-rule:evenodd;stroke:none"
           id="path118690" /><path
           d="m 479,379.816 c -0.15,-9.677 -1.327,-19.44 -3.625,-29.015 -1.552,-6.467 -3.548,-12.572 -5.935,-18.301 -3.699,0.583 -7.469,1.201 -11.304,1.854 4.398,8.532 7.884,17.922 10.312,28.044 1.521,6.334 2.564,12.977 3.13,19.784 2.509,-0.788 4.984,-1.577 7.422,-2.366"
           style="fill:#e6501e;fill-opacity:1;fill-rule:evenodd;stroke:none"
           id="path118692" /><path
           d="m 471.771,425.543 c 4.949,-14.213 7.481,-29.861 7.233,-45.739 L 479,379.816 c -2.438,0.789 -4.913,1.578 -7.422,2.366 1.216,14.603 0.219,29.963 -3.075,44.683 1.096,-0.437 2.185,-0.878 3.268,-1.322"
           style="fill:#e3b600;fill-opacity:1;fill-rule:evenodd;stroke:none"
           id="path118694" /><path
           d="m 463.448,444.12 c 3.262,-5.812 6.049,-12.041 8.323,-18.577 -1.083,0.444 -2.172,0.885 -3.268,1.322 -1.316,5.884 -2.999,11.666 -5.055,17.255"
           style="fill:#82b320;fill-opacity:1;fill-rule:evenodd;stroke:none"
           id="path118696" /><path
           d="m 156.25,529.312 c 48.046,15.173 103.988,-26.333 121.837,-82.849 12.23,-38.732 3.394,-74.46 -18.842,-97.993 -17.865,-18.907 -22.262,-45.301 -11.487,-68.976 3.374,-7.414 7.077,-14.818 11.235,-22.517 14.238,-26.356 29.544,-62.87 37.336,-87.541 5.474,-17.334 -1.192,-33.692 -14.464,-37.883 -13.271,-4.19 -27.764,4.236 -33.596,22.705 -7.74,24.506 -16.195,63.248 -19.69,93.066 -1.02,8.713 -2.247,16.92 -3.75,24.947 -4.787,25.561 -23.543,44.632 -49.02,49.845 -31.724,6.491 -59.48,30.665 -71.713,69.4 -17.848,56.515 4.109,122.623 52.154,137.796"
           style="fill:#996633;fill-opacity:1;fill-rule:evenodd;stroke:none"
           id="path118698" /><path
           d="m 279.026,382.052 c -3.861,-11.974 -10.052,-22.746 -18.168,-31.823 v 0 c -10.877,-11.094 -24.551,-19.76 -40.4,-24.765 -14.729,-4.651 -29.735,-5.637 -44.041,-3.478 -0.203,0.044 -0.405,0.089 -0.608,0.13 -13.066,2.674 -25.458,8.35 -36.371,16.804 23.264,3.083 48.399,8.646 74.145,16.777 23.754,7.502 45.821,16.496 65.443,26.355"
           style="fill:#990099;fill-opacity:1;fill-rule:evenodd;stroke:none"
           id="path118700" /><path
           d="m 147.106,340.017 c 21.08,3.229 43.536,8.435 66.477,15.68 4.855,1.533 9.639,3.129 14.346,4.781 -9.079,-7.71 -20.116,-13.839 -33.007,-17.91 -16.769,-5.297 -32.974,-5.903 -47.816,-2.551"
           style="fill:#b00cb0;fill-opacity:1;fill-rule:evenodd;stroke:none"
           id="path118702" /><path
           d="m 156.25,529.312 c 26.967,8.516 56.421,-0.824 80.231,-20.652 h -0.002 c -21.017,-3.231 -43.398,-8.427 -66.261,-15.647 -24.81,-7.835 -47.78,-17.298 -68.044,-27.674 7.957,30.351 26.814,55.364 54.076,63.973"
           style="fill:#99cc33;fill-opacity:1;fill-rule:evenodd;stroke:none"
           id="path118704" /><path
           d="m 156.25,529.312 c 18.74,5.918 38.68,3.21 57.093,-5.645 5.535,-4.959 10.688,-10.44 15.375,-16.279 -18.731,-3.259 -38.429,-8.036 -58.5,-14.375 -24.81,-7.835 -47.78,-17.298 -68.044,-27.674 7.957,30.351 26.814,55.364 54.076,63.973"
           style="fill:#b0e34b;fill-opacity:1;fill-rule:evenodd;stroke:none"
           id="path118706" /><path
           d="m 176.406,494.921 c -2.058,-0.619 -4.121,-1.255 -6.188,-1.908 -19.885,-6.28 -38.587,-13.605 -55.662,-21.608 2.567,14.966 10.662,28.606 25.254,33.214 13.23,4.177 26.312,-0.747 36.596,-9.698"
           style="fill:#cff77e;fill-opacity:1;fill-rule:evenodd;stroke:none"
           id="path118708" /><path
           d="m 282.432,427.723 c 2.411,-16.332 1.065,-31.808 -3.406,-45.671 -19.622,-9.859 -41.689,-18.853 -65.443,-26.355 -25.746,-8.131 -50.881,-13.694 -74.145,-16.777 -11.339,8.787 -21.08,20.575 -28.317,35.122 l 0.001,-10e-4 c 26.562,5.956 56.981,14.17 89,24.282 30.133,9.515 58.139,19.594 82.309,29.399 z"
           style="fill:#336699;fill-opacity:1;fill-rule:evenodd;stroke:none"
           id="path118710" /><path
           d="m 227.929,360.478 c -4.707,-1.652 -9.491,-3.248 -14.346,-4.781 -22.941,-7.245 -45.397,-12.451 -66.477,-15.68 -4.97,1.122 -9.788,2.689 -14.422,4.674 -8.468,7.956 -15.808,17.781 -21.563,29.351 l 0.001,-10e-4 c 26.562,5.956 56.981,14.17 89,24.282 20.302,6.411 39.638,13.077 57.486,19.744 -2.369,-22.764 -12.515,-43.011 -29.679,-57.589"
           style="fill:#4f84b8;fill-opacity:1;fill-rule:evenodd;stroke:none"
           id="path118712" /><path
           d="m 236.479,508.66 c 11.567,-9.63 21.801,-21.736 29.771,-35.471 l -0.011,0.008 c -24.994,-5.81 -53.097,-13.505 -82.56,-22.809 -31.345,-9.9 -60.386,-20.406 -85.204,-30.582 l -0.004,-0.005 c -1.388,15.594 -0.065,31.165 3.703,45.538 20.264,10.376 43.234,19.839 68.044,27.674 22.863,7.22 45.244,12.416 66.261,15.647"
           style="fill:#ffcc00;fill-opacity:1;fill-rule:evenodd;stroke:none"
           id="path118714" /><path
           d="m 250.532,469.399 c -20.838,-5.226 -43.416,-11.609 -66.853,-19.011 -31.345,-9.9 -60.386,-20.406 -85.204,-30.582 l -0.004,-0.005 c -1.388,15.594 -0.065,31.165 3.703,45.538 20.264,10.376 43.234,19.839 68.044,27.674 20.071,6.339 39.769,11.116 58.5,14.375 9.371,-11.677 16.873,-24.78 21.814,-37.989"
           style="fill:#ffdb4a;fill-opacity:1;fill-rule:evenodd;stroke:none"
           id="path118716" /><path
           d="m 197.105,454.545 c -4.439,-1.347 -8.917,-2.733 -13.426,-4.157 -21.682,-6.847 -42.261,-13.986 -61.103,-21.104 -2.589,3.919 -4.705,8.372 -6.254,13.277 -2.765,8.753 -3.441,19.081 -1.766,28.844 17.075,8.003 35.777,15.328 55.662,21.608 2.067,0.653 4.13,1.289 6.188,1.908 8.51,-7.406 15.102,-17.569 18.275,-27.614 1.363,-4.317 2.162,-8.598 2.424,-12.762"
           style="fill:#ffe98f;fill-opacity:1;fill-rule:evenodd;stroke:none"
           id="path118718" /><path
           d="m 266.239,473.197 c 4.86,-8.37 8.881,-17.343 11.848,-26.734 2.002,-6.34 3.437,-12.601 4.344,-18.741 -24.17,-9.805 -52.176,-19.884 -82.309,-29.399 -32.019,-10.112 -62.438,-18.326 -89,-24.282 -2.708,5.443 -5.067,11.272 -7.026,17.475 -2.925,9.261 -4.774,18.78 -5.621,28.29 24.818,10.176 53.859,20.682 85.204,30.582 29.463,9.304 57.566,16.999 82.56,22.809"
           style="fill:#ff6633;fill-opacity:1;fill-rule:evenodd;stroke:none"
           id="path118720" /><path
           d="m 257.608,418.067 c -17.848,-6.667 -37.184,-13.333 -57.486,-19.744 -32.019,-10.112 -62.438,-18.326 -89,-24.282 -2.708,5.443 -5.067,11.272 -7.026,17.475 -2.925,9.261 -4.774,18.78 -5.621,28.29 24.818,10.176 53.859,20.682 85.204,30.582 23.437,7.402 46.015,13.785 66.853,19.011 0.727,-1.943 1.405,-3.888 2.018,-5.832 4.94,-15.643 6.558,-31.076 5.058,-45.5"
           style="fill:#ff9875;fill-opacity:1;fill-rule:evenodd;stroke:none"
           id="path118722" /><path
           d="m 122.576,429.284 c 18.842,7.118 39.421,14.257 61.103,21.104 4.509,1.424 8.987,2.81 13.426,4.157 1.195,-19.025 -8.902,-35.582 -28.378,-41.732 -18.82,-5.944 -36.069,1.207 -46.151,16.471"
           style="fill:#ffc5b2;fill-opacity:1;fill-rule:evenodd;stroke:none"
           id="path118724" /><path
           d="m 260.858,350.229 c -0.531,-0.592 -1.066,-1.181 -1.613,-1.759 -17.865,-18.907 -22.262,-45.301 -11.487,-68.976 3.374,-7.414 7.077,-14.818 11.235,-22.517 14.238,-26.356 29.544,-62.87 37.336,-87.541 5.474,-17.334 -1.192,-33.692 -14.464,-37.883 -13.271,-4.19 -27.764,4.236 -33.596,22.705 -7.74,24.506 -16.195,63.248 -19.69,93.066 -1.02,8.713 -2.247,16.92 -3.75,24.947 -4.748,25.358 -23.246,44.325 -48.414,49.716 14.308,-2.159 29.314,-1.174 44.043,3.477 15.85,5.005 29.525,13.671 40.4,24.765"
           style="fill:#996633;fill-opacity:1;fill-rule:evenodd;stroke:none"
           id="path118726" /><path
           d="m 260.858,350.229 c -0.531,-0.592 -1.066,-1.181 -1.613,-1.759 -9.254,-9.794 -14.892,-21.597 -16.682,-33.991 -5.154,-2.646 -10.686,-4.926 -16.592,-6.791 -5.714,-1.805 -11.365,-3.082 -16.924,-3.874 -8.459,9.008 -19.659,15.394 -32.632,18.173 14.308,-2.159 29.314,-1.174 44.043,3.477 15.85,5.005 29.525,13.671 40.4,24.765"
           style="fill:#875625;fill-opacity:1;fill-rule:evenodd;stroke:none"
           id="path118728" /><path
           d="m 264.825,132.957 c -4.916,10.131 -11.105,19.037 -18.113,26.391 0.521,-1.756 1.04,-3.455 1.557,-5.09 3.32,-10.514 9.447,-17.772 16.556,-21.301 m 26.342,4.549 c -0.357,1.254 -0.733,2.508 -1.13,3.762 -10.477,33.175 -31.795,58.699 -55.862,70.644 1.196,-6.234 2.493,-12.484 3.853,-18.596 17.522,-11.087 32.622,-30.832 40.473,-55.693 0.684,-2.164 1.301,-4.328 1.851,-6.49 0.505,0.123 1.01,0.262 1.513,0.42 3.634,1.148 6.773,3.211 9.302,5.953 m -16.227,86.848 c 8.672,-19.346 16.506,-39.458 21.389,-54.918 1.491,-4.723 2.079,-9.372 1.88,-13.723 -0.515,1.908 -1.073,3.816 -1.677,5.726 -11.982,37.944 -38.215,65.827 -66.472,74.69 -0.56,3.834 -1.057,7.582 -1.481,11.195 -0.263,2.246 -0.539,4.459 -0.832,6.643 16.84,-4.533 33.188,-14.854 47.193,-29.613 m -30.259,63.273 c 0.834,-2.736 1.857,-5.451 3.077,-8.133 2.369,-5.205 4.9,-10.406 7.638,-15.707 -9.995,5.733 -20.491,9.424 -31.03,10.736 -1.548,6.948 -4.144,13.383 -7.636,19.153 9.373,-0.416 18.768,-2.488 27.951,-6.049 m 0.962,39.041 c -2.197,-5.993 -3.427,-12.259 -3.661,-18.613 -12.792,3.471 -25.836,3.954 -38.489,0.97 -7.033,5.813 -15.445,10.093 -24.85,12.444 0.109,0.057 0.22,0.11 0.329,0.166 13.532,-1.677 27.632,-0.547 41.486,3.829 3.939,1.244 7.744,2.714 11.406,4.392 4.612,-0.721 9.212,-1.793 13.779,-3.188"
           style="fill:#b5824f;fill-opacity:1;fill-rule:evenodd;stroke:none"
           id="path118730" /><path
           d="m 245.643,326.668 c -1.453,-3.961 -2.482,-8.042 -3.08,-12.189 -3.158,-1.621 -6.463,-3.101 -9.904,-4.436 -9.76,1.512 -19.576,1.244 -29.166,-1.018 -7.033,5.813 -15.445,10.093 -24.85,12.444 0.109,0.057 0.22,0.11 0.329,0.166 13.532,-1.677 27.632,-0.547 41.486,3.829 3.939,1.244 7.744,2.714 11.406,4.392 4.612,-0.721 9.212,-1.793 13.779,-3.188"
           style="fill:#996633;fill-opacity:1;fill-rule:evenodd;stroke:none"
           id="path118732" /><path
           d="m 233.709,257.262 c 6.739,2.129 43.474,-95.16 45.603,-101.901 2.127,-6.738 -1.611,-13.929 -8.351,-16.058 -6.74,-2.127 -13.929,1.611 -16.058,8.351 -2.129,6.741 -27.933,107.481 -21.194,109.608"
           style="fill:#bd8a57;fill-opacity:1;fill-rule:evenodd;stroke:none"
           id="path118734" /><path
           d="m 260.913,140.309 c -2.125,3.654 -4.422,7.115 -6.863,10.363 0.4,-1.475 0.693,-2.514 0.853,-3.018 1.029,-3.258 3.24,-5.814 6.01,-7.345 m 8.52,41.373 c 5.306,-13.641 9.224,-24.25 9.879,-26.321 1.407,-4.457 0.248,-9.111 -2.648,-12.367 -7.114,19.289 -18.647,35.131 -32.122,45.713 -1.544,6.539 -3.105,13.35 -4.568,20.031 10.793,-6.461 20.871,-15.67 29.459,-27.056 m -29.409,67.923 c 3.242,-5.81 7.268,-14.419 11.502,-24.128 -5.384,3.711 -10.988,6.726 -16.705,8.968 -1.332,7.643 -2.172,13.996 -2.225,18.053 2.493,-0.84 4.971,-1.807 7.428,-2.893"
           style="fill:#cf9e6e;fill-opacity:1;fill-rule:evenodd;stroke:none"
           id="path118736" /><path
           d="m 279.026,382.052 c -3.861,-11.974 -10.052,-22.746 -18.168,-31.823 v 0 c -10.877,-11.094 -24.551,-19.76 -40.4,-24.765 -13.407,-4.234 -27.045,-5.43 -40.176,-3.983 8.314,0.43 16.875,1.97 25.58,4.72 27.316,8.626 46.689,26.06 57.151,48.246 5.498,2.467 10.841,5.006 16.013,7.605"
           style="fill:#800080;fill-opacity:1;fill-rule:evenodd;stroke:none"
           id="path118738" /><path
           d="m 282.432,427.723 c 2.411,-16.332 1.065,-31.808 -3.406,-45.671 -5.172,-2.599 -10.515,-5.138 -16.013,-7.605 6.913,14.66 9.929,31.395 8.775,49.037 3.623,1.417 7.173,2.83 10.643,4.238 z"
           style="fill:#1f4c78;fill-opacity:1;fill-rule:evenodd;stroke:none"
           id="path118740" /><path
           d="m 266.239,473.197 c 4.86,-8.37 8.881,-17.343 11.848,-26.734 2.002,-6.34 3.437,-12.601 4.344,-18.741 -3.47,-1.408 -7.02,-2.821 -10.643,-4.238 -0.628,9.579 -2.479,19.423 -5.614,29.349 -1.962,6.211 -4.491,12.442 -7.513,18.567 2.555,0.618 5.083,1.217 7.578,1.797"
           style="fill:#e6501e;fill-opacity:1;fill-rule:evenodd;stroke:none"
           id="path118742" /><path
           d="m 236.479,508.66 c 11.567,-9.63 21.801,-21.736 29.771,-35.471 l -0.011,0.008 c -2.495,-0.58 -5.023,-1.179 -7.578,-1.797 -6.484,13.142 -15.254,25.79 -25.663,36.708 1.165,0.19 2.325,0.374 3.481,0.552"
           style="fill:#e3b600;fill-opacity:1;fill-rule:evenodd;stroke:none"
           id="path118744" /><path
           d="m 219.774,520.291 c 5.79,-3.3 11.389,-7.203 16.707,-11.631 h -0.002 c -1.156,-0.178 -2.316,-0.362 -3.481,-0.552 -4.161,4.364 -8.581,8.452 -13.224,12.183"
           style="fill:#82b320;fill-opacity:1;fill-rule:evenodd;stroke:none"
           id="path118746" /></g></g></g></svg>
